<?xml version="1.0" encoding="utf-8"?>
<!-- Generator: Adobe Illustrator 24.2.0, SVG Export Plug-In . SVG Version: 6.00 Build 0)  -->
<svg version="1.1" id="Layer_1" xmlns="http://www.w3.org/2000/svg" xmlns:xlink="http://www.w3.org/1999/xlink" x="0px" y="0px"
	 viewBox="0 0 576 512" style="enable-background:new 0 0 576 512;" xml:space="preserve">
<path d="M128,160h320v192H128V160z M528,256c0,26.5,21.5,48,48,48v96c0,26.5-21.5,48-48,48H48c-26.5,0-48-21.5-48-48v-96
	c26.5,0,48-21.5,48-48s-21.5-48-48-48v-96c0-26.5,21.5-48,48-48h480c26.5,0,48,21.5,48,48v96C549.5,208,528,229.5,528,256z M480,152
	c0-13.3-10.7-24-24-24H120c-13.3,0-24,10.7-24,24v208c0,13.3,10.7,24,24,24h336c13.3,0,24-10.7,24-24V152z"/>
</svg>
